<svg xmlns="http://www.w3.org/2000/svg" viewBox="0 0 100 100" role="img" aria-label="beehave brand mark">
  <!-- Body clip for stripes -->
  <defs>
    <clipPath id="body-clip">
      <path d="M 38 38 L 62 38 L 62 44 Q 62 48 68 52 Q 80 62 80 76 Q 80 92 50 92 Q 20 92 20 76 Q 20 62 32 52 Q 38 48 38 44 Z"/>
    </clipPath>
  </defs>

  <!-- Flask body -->
  <path d="M 38 38 L 62 38 L 62 44 Q 62 48 68 52 Q 80 62 80 76 Q 80 92 50 92 Q 20 92 20 76 Q 20 62 32 52 Q 38 48 38 44 Z" fill="#f5a800"/>

  <!-- Stripes clipped to body interior -->
  <g clip-path="url(#body-clip)">
    <rect x="10" y="56" width="80" height="10" rx="5" fill="#c87d00"/>
    <rect x="10" y="70" width="80" height="10" rx="5" fill="#c87d00"/>
    <rect x="10" y="84" width="80" height="10" rx="5" fill="#c87d00"/>
  </g>

  <!-- Cute downward-bending antennae -->
  <path d="M 42 38 Q 40 22 32 18" fill="none" stroke="#f5a800" stroke-width="4" stroke-linecap="round"/>
  <circle cx="32" cy="18" r="4.5" fill="#f5a800"/>
  <path d="M 58 38 Q 60 22 68 18" fill="none" stroke="#f5a800" stroke-width="4" stroke-linecap="round"/>
  <circle cx="68" cy="18" r="4.5" fill="#f5a800"/>
</svg>
