<svg xmlns="http://www.w3.org/2000/svg" viewBox="0 0 100 100" role="img" aria-label="beehave brand mark">
  <defs>
    <clipPath id="body-clip">
      <path d="M 42 18 L 58 18 L 58 36 Q 58 40 66 46 Q 78 56 78 72 Q 78 92 50 92 Q 22 92 22 72 Q 22 56 34 46 Q 42 40 42 36 Z"/>
    </clipPath>
  </defs>

  <!-- Main body with white border -->
  <path d="M 42 18 L 58 18 L 58 36 Q 58 40 66 46 Q 78 56 78 72 Q 78 92 50 92 Q 22 92 22 72 Q 22 56 34 46 Q 42 40 42 36 Z"
        fill="#f5a800" stroke="#ffffff" stroke-width="3" stroke-linejoin="round"/>

  <!-- Stripes clipped to body interior -->
  <g clip-path="url(#body-clip)">
    <rect x="10" y="50" width="80" height="10" rx="5" fill="#c87d00"/>
    <rect x="10" y="64" width="80" height="10" rx="5" fill="#c87d00"/>
    <rect x="10" y="78" width="80" height="10" rx="5" fill="#c87d00"/>
  </g>

  <!-- Cute downward-bending antennae -->
  <path d="M 46 18 Q 44 8 36 6" fill="none" stroke="#f5a800" stroke-width="3.5" stroke-linecap="round"/>
<circle cx="36" cy="6" r="3.5" fill="#ffffff"/>
    <path d="M 54 18 Q 56 8 64 6" fill="none" stroke="#f5a800" stroke-width="3.5" stroke-linecap="round"/>
    <circle cx="64" cy="6" r="3.5" fill="#ffffff"/>
</svg>
